<svg width="1920" height="1080" viewBox="0 0 1920 1080" fill="none" xmlns="http://www.w3.org/2000/svg">
<g clip-path="url(#clip0)">
<rect width="1920" height="1080" fill="#451053"/>
<path d="M-795.378 475.607C-795.378 475.607 1519.28 181.52 259.996 -497.8C-999.29 -1177.12 512.739 1749.78 512.739 1749.78L-305.593 654.24L-795.378 475.607Z" fill="white" fill-opacity="0.25"/>
<path d="M-710.749 406.776C-710.749 406.776 1322.46 478.968 63.1734 -200.352C-1196.11 -879.672 534.204 1469.09 534.204 1469.09L-220.964 585.409L-710.749 406.776Z" fill="white" fill-opacity="0.25"/>
<path d="M1954.8 1195.81C1954.8 1195.81 2886.8 -798.194 1742.8 -152.194C598.796 493.806 3574.6 822 3574.6 822L2334.8 899.805L1954.8 1195.81Z" fill="white" fill-opacity="0.25"/>
<path d="M1944.8 1092.53C1944.8 1092.53 3014.3 -486.195 1870.3 159.805C726.297 805.805 3372.3 658.177 3372.3 658.177L2324.8 796.535L1944.8 1092.53Z" fill="white" fill-opacity="0.25"/>
<path d="M1763.15 2143.67C1763.15 2143.67 2481.53 63.1498 1411.36 825.233C341.178 1587.32 3334.98 1602.54 3334.98 1602.54L2110.12 1809.56L1763.15 2143.67Z" fill="white" fill-opacity="0.25"/>
<path d="M1742.41 2042.02C1742.41 2042.02 2640.96 360.106 1570.78 1122.19C500.605 1884.27 3116.66 1460.77 3116.66 1460.77L2089.37 1707.9L1742.41 2042.02Z" fill="white" fill-opacity="0.25"/>
</g>
<defs>
<clipPath id="clip0">
<rect width="1920" height="1080" fill="white"/>
</clipPath>
</defs>
</svg>
